<svg width="32" height="32" viewBox="0 0 32 32" fill="none" xmlns="http://www.w3.org/2000/svg">
<path fill-rule="evenodd" clip-rule="evenodd" d="M32 13.7389C32 6.58022 24.8227 0.754883 16 0.754883C7.17867 0.754883 0 6.58022 0 13.7389C0 20.1575 5.692 25.5335 13.3813 26.5495C13.9027 26.6615 14.6107 26.8935 14.7907 27.3389C14.952 27.7429 14.896 28.3762 14.8427 28.7855L14.6147 30.1549C14.544 30.5589 14.292 31.7362 16 31.0175C17.708 30.2975 25.2147 25.5922 28.5707 21.7282C30.8893 19.1855 32 16.6042 32 13.7389ZM6.68267 10.2789C6.85467 10.2789 6.99467 10.4189 6.99467 10.5909V16.1282H10.044C10.216 16.1282 10.3547 16.2669 10.3547 16.4389V17.5615C10.3547 17.7335 10.216 17.8735 10.044 17.8735H5.56C5.476 17.8735 5.40133 17.8402 5.34533 17.7869L5.344 17.7855L5.34133 17.7829L5.34 17.7815L5.336 17.7775C5.28267 17.7215 5.24933 17.6455 5.24933 17.5629V10.5909C5.24933 10.4189 5.388 10.2789 5.56 10.2789H6.68267ZM26.672 10.2789C26.844 10.2789 26.9827 10.4189 26.9827 10.5909V11.7135C26.9827 11.8855 26.844 12.0255 26.672 12.0255H23.6227V13.2029H26.672C26.844 13.2029 26.9827 13.3429 26.9827 13.5149V14.6375C26.9827 14.8095 26.844 14.9495 26.672 14.9495H23.6227V16.1282H26.672C26.844 16.1282 26.9827 16.2682 26.9827 16.4389V17.5615C26.9827 17.7335 26.844 17.8735 26.672 17.8735H22.188C22.104 17.8735 22.028 17.8402 21.972 17.7869L21.968 17.7815L21.964 17.7775C21.9107 17.7215 21.876 17.6455 21.876 17.5629V10.5909C21.876 10.5082 21.9093 10.4322 21.9627 10.3762L21.968 10.3709L21.972 10.3669C22.028 10.3135 22.104 10.2789 22.188 10.2789H26.672ZM12.7493 10.2802C12.9213 10.2802 13.0613 10.4189 13.0613 10.5909V17.5629C13.0613 17.7335 12.9213 17.8735 12.7493 17.8735H11.6267C11.4547 17.8735 11.3147 17.7335 11.3147 17.5629V10.5909C11.3147 10.4189 11.4547 10.2802 11.6267 10.2802H12.7493ZM15.5853 10.2802H15.596L15.612 10.2815L15.6293 10.2829L15.6427 10.2842L15.66 10.2882L15.6707 10.2922L15.6893 10.2975L15.7 10.3015L15.7173 10.3095L15.7267 10.3135L15.744 10.3229L15.7533 10.3282L15.7693 10.3402L15.7773 10.3455L15.7947 10.3602L15.8 10.3655L15.8187 10.3842L15.8213 10.3869L15.8453 10.4175L19.04 14.7322V10.5909C19.04 10.4189 19.18 10.2802 19.352 10.2802H20.4733C20.6467 10.2802 20.7853 10.4189 20.7853 10.5909V17.5629C20.7853 17.7335 20.6467 17.8735 20.4733 17.8735H19.352L19.272 17.8629L19.2667 17.8615L19.2467 17.8549L19.2373 17.8509L19.2213 17.8455L19.2067 17.8375L19.1973 17.8335L19.1787 17.8215L19.176 17.8189L19.096 17.7415L15.8973 13.4215V17.5629C15.8973 17.7335 15.7587 17.8735 15.5853 17.8735H14.464C14.292 17.8735 14.152 17.7335 14.152 17.5629V10.5909C14.152 10.4189 14.292 10.2802 14.464 10.2802H15.5853Z" fill="white"/>
</svg>
