<?xml version="1.0" encoding="UTF-8"?><svg id="_レイヤー_2" xmlns="http://www.w3.org/2000/svg" viewBox="0 0 228.63 42.06"><defs><style>.cls-1{fill:#fff;}</style></defs><g id="_レイヤー_1-2"><path class="cls-1" d="m19.8,6.25v35.81h-7.22V6.25H0V0h32.74v6.25h-12.94Z"/><path class="cls-1" d="m79.36,42.06l-15.93-24.46h5.72c6.69,0,9.59-1.23,9.59-6.07,0-3.96-3.34-5.28-8.45-5.28h-7.74v35.81h-7.22V0h14.96c10.47,0,15.58,3.87,15.58,11.62s-4.4,10.65-11.09,11.18l13.29,19.27h-8.71Z"/><path class="cls-1" d="m110.71,42.06V0h7.22v42.06h-7.22Z"/><path class="cls-1" d="m144.58,42.06V0h7.22v42.06h-7.22Zm24.02,0l-16.81-22L167.11,0h8.89l-15.58,20.06,17.07,22h-8.89Z"/><path class="cls-1" d="m199.15,42.06V0h29.48v6.25h-22.26v11h20.42v6.42h-20.42v12.14h22.26v6.25h-29.48Z"/></g></svg>